<svg width="154" height="13" viewBox="0 0 154 13" fill="none" xmlns="http://www.w3.org/2000/svg">
<path d="M5.85071 0.625V12H3.2179V3.59375L0.624146 4.35156V2.35156L5.60852 0.625H5.85071ZM17.6467 5.27344V7.35156C17.6467 8.16927 17.5504 8.88021 17.3577 9.48438C17.1702 10.0885 16.8993 10.5885 16.5452 10.9844C16.1962 11.3802 15.7795 11.6745 15.2952 11.8672C14.8108 12.0599 14.2769 12.1562 13.6936 12.1562C13.2248 12.1562 12.7873 12.0964 12.3811 11.9766C11.9748 11.8516 11.6077 11.6641 11.2795 11.4141C10.9566 11.1589 10.678 10.8411 10.4436 10.4609C10.2092 10.0807 10.0295 9.63281 9.90453 9.11719C9.77953 8.59635 9.71703 8.00781 9.71703 7.35156V5.27344C9.71703 4.45052 9.81078 3.73958 9.99828 3.14062C10.191 2.53646 10.4644 2.03646 10.8186 1.64062C11.1728 1.24479 11.592 0.950521 12.0764 0.757812C12.5608 0.565104 13.0946 0.46875 13.678 0.46875C14.1467 0.46875 14.5816 0.53125 14.9827 0.65625C15.3889 0.776042 15.7561 0.963542 16.0842 1.21875C16.4123 1.46875 16.691 1.78385 16.9202 2.16406C17.1545 2.54427 17.3342 2.99479 17.4592 3.51562C17.5842 4.03125 17.6467 4.61719 17.6467 5.27344ZM15.0139 7.67188V4.9375C15.0139 4.57292 14.9931 4.25521 14.9514 3.98438C14.9149 3.71354 14.8577 3.48438 14.7795 3.29688C14.7066 3.10938 14.6155 2.95833 14.5061 2.84375C14.3967 2.72396 14.2717 2.63802 14.1311 2.58594C13.9957 2.52865 13.8446 2.5 13.678 2.5C13.4696 2.5 13.2821 2.54427 13.1155 2.63281C12.954 2.71615 12.816 2.85156 12.7014 3.03906C12.5868 3.22656 12.4983 3.47656 12.4358 3.78906C12.3785 4.10156 12.3498 4.48438 12.3498 4.9375V7.67188C12.3498 8.04167 12.3681 8.36458 12.4045 8.64062C12.4462 8.91146 12.5035 9.14323 12.5764 9.33594C12.6545 9.52344 12.7483 9.67708 12.8577 9.79688C12.967 9.91146 13.092 9.99479 13.2327 10.0469C13.3733 10.099 13.5269 10.125 13.6936 10.125C13.8967 10.125 14.079 10.0833 14.2405 10C14.4019 9.91667 14.5399 9.78125 14.6545 9.59375C14.7743 9.40104 14.8629 9.14844 14.9202 8.83594C14.9827 8.51823 15.0139 8.13021 15.0139 7.67188ZM19.6927 10.7656C19.6927 10.3906 19.8281 10.0781 20.099 9.82812C20.3698 9.57292 20.7188 9.44531 21.1458 9.44531C21.5781 9.44531 21.9271 9.57292 22.1927 9.82812C22.4636 10.0781 22.599 10.3906 22.599 10.7656C22.599 11.1406 22.4636 11.4557 22.1927 11.7109C21.9271 11.9609 21.5781 12.0859 21.1458 12.0859C20.7188 12.0859 20.3698 11.9609 20.099 11.7109C19.8281 11.4557 19.6927 11.1406 19.6927 10.7656ZM19.6927 4.53125C19.6927 4.15625 19.8281 3.84375 20.099 3.59375C20.3698 3.33854 20.7188 3.21094 21.1458 3.21094C21.5781 3.21094 21.9271 3.33854 22.1927 3.59375C22.4636 3.84375 22.599 4.15625 22.599 4.53125C22.599 4.90625 22.4636 5.22135 22.1927 5.47656C21.9271 5.72656 21.5781 5.85156 21.1458 5.85156C20.7188 5.85156 20.3698 5.72656 20.099 5.47656C19.8281 5.22135 19.6927 4.90625 19.6927 4.53125ZM32.6294 5.27344V7.35156C32.6294 8.16927 32.533 8.88021 32.3403 9.48438C32.1528 10.0885 31.882 10.5885 31.5278 10.9844C31.1788 11.3802 30.7622 11.6745 30.2778 11.8672C29.7934 12.0599 29.2596 12.1562 28.6762 12.1562C28.2075 12.1562 27.77 12.0964 27.3637 11.9766C26.9575 11.8516 26.5903 11.6641 26.2622 11.4141C25.9392 11.1589 25.6606 10.8411 25.4262 10.4609C25.1919 10.0807 25.0122 9.63281 24.8872 9.11719C24.7622 8.59635 24.6997 8.00781 24.6997 7.35156V5.27344C24.6997 4.45052 24.7934 3.73958 24.9809 3.14062C25.1736 2.53646 25.4471 2.03646 25.8012 1.64062C26.1554 1.24479 26.5747 0.950521 27.059 0.757812C27.5434 0.565104 28.0773 0.46875 28.6606 0.46875C29.1294 0.46875 29.5642 0.53125 29.9653 0.65625C30.3715 0.776042 30.7387 0.963542 31.0669 1.21875C31.395 1.46875 31.6736 1.78385 31.9028 2.16406C32.1372 2.54427 32.3169 2.99479 32.4419 3.51562C32.5669 4.03125 32.6294 4.61719 32.6294 5.27344ZM29.9965 7.67188V4.9375C29.9965 4.57292 29.9757 4.25521 29.934 3.98438C29.8976 3.71354 29.8403 3.48438 29.7622 3.29688C29.6892 3.10938 29.5981 2.95833 29.4887 2.84375C29.3794 2.72396 29.2544 2.63802 29.1137 2.58594C28.9783 2.52865 28.8273 2.5 28.6606 2.5C28.4523 2.5 28.2648 2.54427 28.0981 2.63281C27.9366 2.71615 27.7986 2.85156 27.684 3.03906C27.5695 3.22656 27.4809 3.47656 27.4184 3.78906C27.3611 4.10156 27.3325 4.48438 27.3325 4.9375V7.67188C27.3325 8.04167 27.3507 8.36458 27.3872 8.64062C27.4288 8.91146 27.4861 9.14323 27.559 9.33594C27.6372 9.52344 27.7309 9.67708 27.8403 9.79688C27.9497 9.91146 28.0747 9.99479 28.2153 10.0469C28.3559 10.099 28.5096 10.125 28.6762 10.125C28.8794 10.125 29.0616 10.0833 29.2231 10C29.3846 9.91667 29.5226 9.78125 29.6372 9.59375C29.757 9.40104 29.8455 9.14844 29.9028 8.83594C29.9653 8.51823 29.9965 8.13021 29.9965 7.67188ZM42.355 5.27344V7.35156C42.355 8.16927 42.2587 8.88021 42.066 9.48438C41.8785 10.0885 41.6076 10.5885 41.2535 10.9844C40.9045 11.3802 40.4879 11.6745 40.0035 11.8672C39.5191 12.0599 38.9853 12.1562 38.4019 12.1562C37.9332 12.1562 37.4957 12.0964 37.0894 11.9766C36.6832 11.8516 36.316 11.6641 35.9879 11.4141C35.6649 11.1589 35.3863 10.8411 35.1519 10.4609C34.9175 10.0807 34.7379 9.63281 34.6129 9.11719C34.4879 8.59635 34.4254 8.00781 34.4254 7.35156V5.27344C34.4254 4.45052 34.5191 3.73958 34.7066 3.14062C34.8993 2.53646 35.1728 2.03646 35.5269 1.64062C35.8811 1.24479 36.3004 0.950521 36.7847 0.757812C37.2691 0.565104 37.803 0.46875 38.3863 0.46875C38.855 0.46875 39.2899 0.53125 39.691 0.65625C40.0972 0.776042 40.4644 0.963542 40.7925 1.21875C41.1207 1.46875 41.3993 1.78385 41.6285 2.16406C41.8629 2.54427 42.0425 2.99479 42.1675 3.51562C42.2925 4.03125 42.355 4.61719 42.355 5.27344ZM39.7222 7.67188V4.9375C39.7222 4.57292 39.7014 4.25521 39.6597 3.98438C39.6233 3.71354 39.566 3.48438 39.4879 3.29688C39.4149 3.10938 39.3238 2.95833 39.2144 2.84375C39.105 2.72396 38.98 2.63802 38.8394 2.58594C38.704 2.52865 38.553 2.5 38.3863 2.5C38.178 2.5 37.9905 2.54427 37.8238 2.63281C37.6623 2.71615 37.5243 2.85156 37.4097 3.03906C37.2951 3.22656 37.2066 3.47656 37.1441 3.78906C37.0868 4.10156 37.0582 4.48438 37.0582 4.9375V7.67188C37.0582 8.04167 37.0764 8.36458 37.1129 8.64062C37.1545 8.91146 37.2118 9.14323 37.2847 9.33594C37.3629 9.52344 37.4566 9.67708 37.566 9.79688C37.6754 9.91146 37.8004 9.99479 37.941 10.0469C38.0816 10.099 38.2353 10.125 38.4019 10.125C38.605 10.125 38.7873 10.0833 38.9488 10C39.1103 9.91667 39.2483 9.78125 39.3629 9.59375C39.4826 9.40104 39.5712 9.14844 39.6285 8.83594C39.691 8.51823 39.7222 8.13021 39.7222 7.67188ZM53.5955 3.01562L50.8221 12H47.8767L52.0564 0.625H53.9236L53.5955 3.01562ZM55.8924 12L53.1111 3.01562L52.7517 0.625H54.6424L58.8455 12H55.8924ZM55.783 7.75781V9.875H49.9471V7.75781H55.783ZM61.4853 0.625H63.7196L66.2587 8.53906L68.7978 0.625H71.0321L67.1649 12H65.3524L61.4853 0.625ZM60.1259 0.625H62.4384L62.8681 9.34375V12H60.1259V0.625ZM70.079 0.625H72.3993V12H69.6493V9.34375L70.079 0.625ZM84.046 6.07812V8.11719H79.3507V6.07812H84.046ZM98.8802 9.96875V12H90.9427V10.2812L94.599 6.4375C94.9219 6.06771 95.1823 5.73698 95.3802 5.44531C95.5781 5.14844 95.7214 4.88021 95.8099 4.64062C95.9037 4.40104 95.9505 4.1849 95.9505 3.99219C95.9505 3.66406 95.9011 3.39062 95.8021 3.17188C95.7083 2.94792 95.5677 2.77865 95.3802 2.66406C95.1979 2.54948 94.9714 2.49219 94.7005 2.49219C94.4297 2.49219 94.1927 2.57031 93.9896 2.72656C93.7865 2.88281 93.6276 3.09635 93.513 3.36719C93.4037 3.63802 93.349 3.94271 93.349 4.28125H90.7083C90.7083 3.58333 90.8776 2.94531 91.2162 2.36719C91.5599 1.78906 92.0365 1.32812 92.6458 0.984375C93.2552 0.635417 93.9609 0.460938 94.763 0.460938C95.6016 0.460938 96.3047 0.591146 96.8724 0.851562C97.4401 1.11198 97.8672 1.48958 98.1537 1.98438C98.4453 2.47396 98.5912 3.0651 98.5912 3.75781C98.5912 4.15365 98.5287 4.53385 98.4037 4.89844C98.2787 5.26302 98.099 5.625 97.8646 5.98438C97.6302 6.33854 97.3438 6.70312 97.0052 7.07812C96.6719 7.45312 96.2917 7.85156 95.8646 8.27344L94.3958 9.96875H98.8802ZM100.887 10.7656C100.887 10.3906 101.023 10.0781 101.293 9.82812C101.564 9.57292 101.913 9.44531 102.34 9.44531C102.773 9.44531 103.122 9.57292 103.387 9.82812C103.658 10.0781 103.793 10.3906 103.793 10.7656C103.793 11.1406 103.658 11.4557 103.387 11.7109C103.122 11.9609 102.773 12.0859 102.34 12.0859C101.913 12.0859 101.564 11.9609 101.293 11.7109C101.023 11.4557 100.887 11.1406 100.887 10.7656ZM100.887 4.53125C100.887 4.15625 101.023 3.84375 101.293 3.59375C101.564 3.33854 101.913 3.21094 102.34 3.21094C102.773 3.21094 103.122 3.33854 103.387 3.59375C103.658 3.84375 103.793 4.15625 103.793 4.53125C103.793 4.90625 103.658 5.22135 103.387 5.47656C103.122 5.72656 102.773 5.85156 102.34 5.85156C101.913 5.85156 101.564 5.72656 101.293 5.47656C101.023 5.22135 100.887 4.90625 100.887 4.53125ZM113.824 5.27344V7.35156C113.824 8.16927 113.727 8.88021 113.535 9.48438C113.347 10.0885 113.076 10.5885 112.722 10.9844C112.373 11.3802 111.957 11.6745 111.472 11.8672C110.988 12.0599 110.454 12.1562 109.871 12.1562C109.402 12.1562 108.964 12.0964 108.558 11.9766C108.152 11.8516 107.785 11.6641 107.457 11.4141C107.134 11.1589 106.855 10.8411 106.621 10.4609C106.386 10.0807 106.207 9.63281 106.082 9.11719C105.957 8.59635 105.894 8.00781 105.894 7.35156V5.27344C105.894 4.45052 105.988 3.73958 106.175 3.14062C106.368 2.53646 106.641 2.03646 106.996 1.64062C107.35 1.24479 107.769 0.950521 108.253 0.757812C108.738 0.565104 109.272 0.46875 109.855 0.46875C110.324 0.46875 110.759 0.53125 111.16 0.65625C111.566 0.776042 111.933 0.963542 112.261 1.21875C112.589 1.46875 112.868 1.78385 113.097 2.16406C113.332 2.54427 113.511 2.99479 113.636 3.51562C113.761 4.03125 113.824 4.61719 113.824 5.27344ZM111.191 7.67188V4.9375C111.191 4.57292 111.17 4.25521 111.128 3.98438C111.092 3.71354 111.035 3.48438 110.957 3.29688C110.884 3.10938 110.793 2.95833 110.683 2.84375C110.574 2.72396 110.449 2.63802 110.308 2.58594C110.173 2.52865 110.022 2.5 109.855 2.5C109.647 2.5 109.459 2.54427 109.293 2.63281C109.131 2.71615 108.993 2.85156 108.878 3.03906C108.764 3.22656 108.675 3.47656 108.613 3.78906C108.556 4.10156 108.527 4.48438 108.527 4.9375V7.67188C108.527 8.04167 108.545 8.36458 108.582 8.64062C108.623 8.91146 108.681 9.14323 108.753 9.33594C108.832 9.52344 108.925 9.67708 109.035 9.79688C109.144 9.91146 109.269 9.99479 109.41 10.0469C109.55 10.099 109.704 10.125 109.871 10.125C110.074 10.125 110.256 10.0833 110.418 10C110.579 9.91667 110.717 9.78125 110.832 9.59375C110.951 9.40104 111.04 9.14844 111.097 8.83594C111.16 8.51823 111.191 8.13021 111.191 7.67188ZM123.549 5.27344V7.35156C123.549 8.16927 123.453 8.88021 123.26 9.48438C123.073 10.0885 122.802 10.5885 122.448 10.9844C122.099 11.3802 121.682 11.6745 121.198 11.8672C120.714 12.0599 120.18 12.1562 119.596 12.1562C119.128 12.1562 118.69 12.0964 118.284 11.9766C117.878 11.8516 117.51 11.6641 117.182 11.4141C116.859 11.1589 116.581 10.8411 116.346 10.4609C116.112 10.0807 115.932 9.63281 115.807 9.11719C115.682 8.59635 115.62 8.00781 115.62 7.35156V5.27344C115.62 4.45052 115.714 3.73958 115.901 3.14062C116.094 2.53646 116.367 2.03646 116.721 1.64062C117.076 1.24479 117.495 0.950521 117.979 0.757812C118.464 0.565104 118.997 0.46875 119.581 0.46875C120.049 0.46875 120.484 0.53125 120.885 0.65625C121.292 0.776042 121.659 0.963542 121.987 1.21875C122.315 1.46875 122.594 1.78385 122.823 2.16406C123.057 2.54427 123.237 2.99479 123.362 3.51562C123.487 4.03125 123.549 4.61719 123.549 5.27344ZM120.917 7.67188V4.9375C120.917 4.57292 120.896 4.25521 120.854 3.98438C120.818 3.71354 120.76 3.48438 120.682 3.29688C120.609 3.10938 120.518 2.95833 120.409 2.84375C120.299 2.72396 120.174 2.63802 120.034 2.58594C119.898 2.52865 119.747 2.5 119.581 2.5C119.372 2.5 119.185 2.54427 119.018 2.63281C118.857 2.71615 118.719 2.85156 118.604 3.03906C118.49 3.22656 118.401 3.47656 118.339 3.78906C118.281 4.10156 118.253 4.48438 118.253 4.9375V7.67188C118.253 8.04167 118.271 8.36458 118.307 8.64062C118.349 8.91146 118.406 9.14323 118.479 9.33594C118.557 9.52344 118.651 9.67708 118.76 9.79688C118.87 9.91146 118.995 9.99479 119.135 10.0469C119.276 10.099 119.43 10.125 119.596 10.125C119.799 10.125 119.982 10.0833 120.143 10C120.305 9.91667 120.443 9.78125 120.557 9.59375C120.677 9.40104 120.766 9.14844 120.823 8.83594C120.885 8.51823 120.917 8.13021 120.917 7.67188ZM134.509 8.14062H131.681V6.02344H134.509C134.894 6.02344 135.207 5.95833 135.446 5.82812C135.686 5.69792 135.86 5.51823 135.97 5.28906C136.084 5.05469 136.141 4.79167 136.141 4.5C136.141 4.1875 136.084 3.89844 135.97 3.63281C135.86 3.36719 135.686 3.15365 135.446 2.99219C135.207 2.82552 134.894 2.74219 134.509 2.74219H132.712V12H129.97V0.625H134.509C135.42 0.625 136.204 0.791667 136.86 1.125C137.522 1.45833 138.03 1.91667 138.384 2.5C138.738 3.07812 138.915 3.73958 138.915 4.48438C138.915 5.21875 138.738 5.85938 138.384 6.40625C138.03 6.95312 137.522 7.38021 136.86 7.6875C136.204 7.98958 135.42 8.14062 134.509 8.14062ZM142.195 0.625H144.43L146.969 8.53906L149.508 0.625H151.742L147.875 12H146.062L142.195 0.625ZM140.836 0.625H143.148L143.578 9.34375V12H140.836V0.625ZM150.789 0.625H153.109V12H150.359V9.34375L150.789 0.625Z" fill="#373737"/>
</svg>
